<svg id="Слой_1" data-name="Слой 1" xmlns="http://www.w3.org/2000/svg" viewBox="0 0 150 50"><defs><style>.cls-1{fill:#fcec9c;stroke-width:3px;}.cls-1,.cls-4,.cls-5{stroke:#231a09;stroke-miterlimit:10;}.cls-2,.cls-6{fill:#231a09;}.cls-3{fill:#fff;}.cls-4{fill:#8a1643;}.cls-5{fill:#ffc0dd;}.cls-6{font-size:29.67px;font-family:Rockwell-Bold, Rockwell;font-weight:700;}.cls-7{letter-spacing:-0.02em;}.cls-8{letter-spacing:-0.03em;}.cls-9{letter-spacing:0em;}</style></defs><title>potato_logo</title><ellipse class="cls-1" cx="31.05" cy="24.91" rx="26" ry="19.09" transform="translate(-8.3 18.86) rotate(-30)"/><polygon class="cls-2" points="5.5 11.5 5.5 15.5 8 15.5 8 18 10 18 10 20 12 20 12 22 26 22 26 20 28 20 28 18 30 18 30 15 34 15 34 18 37 18 37 20 39 20 39 22 53 22 53 20 55 20 55 18 57 18 57 15.5 59.5 15.5 59.5 11.5 5.5 11.5"/><rect class="cls-3" x="8" y="13" width="2" height="2"/><rect class="cls-3" x="12" y="13" width="2" height="2"/><rect class="cls-3" x="10" y="15" width="2" height="2"/><rect class="cls-3" x="12" y="17" width="2" height="2"/><rect class="cls-3" x="16" y="17" width="2" height="2"/><rect class="cls-3" x="14" y="15" width="2" height="2"/><rect class="cls-3" x="35" y="13" width="2" height="2"/><rect class="cls-3" x="39" y="13" width="2" height="2"/><rect class="cls-3" x="37" y="15" width="2" height="2"/><rect class="cls-3" x="39" y="17" width="2" height="2"/><rect class="cls-3" x="43" y="17" width="2" height="2"/><rect class="cls-3" x="41" y="15" width="2" height="2"/><path class="cls-4" d="M42,27.86C42,26,41.08,26,40.15,26c-3.69,0-4.95,0-9.23,0s-7.39,0-11.08,0H18a6.86,6.86,0,0,0,0,.93h.92v1.86c0,5.07,4.89,9.37,10.38,10.09a6,6,0,0,1,11.29-4A5.28,5.28,0,0,0,42,31.58Z"/><path class="cls-5" d="M35,31a6,6,0,0,0-5.69,7.88,12.38,12.38,0,0,0,1.62.12,12.92,12.92,0,0,0,9.67-4.15A6,6,0,0,0,35,31Z"/><text class="cls-6" transform="translate(63.33 36.9) scale(0.65 1)">P<tspan class="cls-7" x="19.79" y="0">O</tspan><tspan class="cls-8" x="44.38" y="0">TA</tspan><tspan class="cls-7" x="83.41" y="0">T</tspan><tspan class="cls-9" x="102.74" y="0">O</tspan></text></svg>